<svg fill="currentColor" viewBox="0 0 25 25" xmlns="http://www.w3.org/2000/svg">
<path d="M12.5 0C19.4035 0 25 5.59644 25 12.5C25 19.4035 19.4035 25 12.5 25C5.59644 25 0 19.4035 0 12.5C0 5.59644 5.59644 0 12.5 0ZM12.5 6.25C12.0254 6.25 11.6331 6.60269 11.571 7.06029L11.5625 7.1875V11.5625H7.1875C6.66974 11.5625 6.25 11.9823 6.25 12.5C6.25 12.9746 6.60269 13.3669 7.06029 13.429L7.1875 13.4375H11.5625V17.8125C11.5625 18.3302 11.9823 18.75 12.5 18.75C12.9746 18.75 13.3669 18.3973 13.429 17.9398L13.4375 17.8125V13.4375H17.8125C18.3302 13.4375 18.75 13.0177 18.75 12.5C18.75 12.0254 18.3973 11.6331 17.9398 11.571L17.8125 11.5625H13.4375V7.1875C13.4375 6.66974 13.0177 6.25 12.5 6.25Z"/>
</svg>
