<svg fill="currentColor" viewBox="0 0 34 34" xmlns="http://www.w3.org/2000/svg">
<path d="M16.9983 33.6667C7.79367 33.6667 0.331676 26.2047 0.331676 17C0.331676 7.79532 7.79367 0.333324 16.9983 0.333324C26.2031 0.333324 33.665 7.79532 33.665 17C33.665 26.2047 26.2031 33.6667 16.9983 33.6667ZM15.6978 24.5517L15.838 24.6727C16.273 24.9955 16.87 24.9995 17.309 24.6847L17.4657 24.5517L17.5867 24.4115C17.9093 23.9765 17.9133 23.3795 17.5985 22.9405L17.4657 22.7839L12.9328 18.2512H24.0829L24.2525 18.2398C24.8072 18.1645 25.2462 17.7255 25.3215 17.1708L25.3329 17.0012L25.3215 16.8315C25.2462 16.2768 24.8072 15.8378 24.2525 15.7627L24.0829 15.7512H12.9328L17.4667 11.2172L17.5877 11.077C17.9508 10.5877 17.9107 9.89332 17.467 9.44949C17.0232 9.00549 16.3288 8.96515 15.8393 9.32799L15.6992 9.44899L9.03001 16.1157L8.90884 16.256C8.58601 16.691 8.58201 17.288 8.89684 17.727L9.02984 17.8837L15.6978 24.5517Z"/>
</svg>
