<svg fill="currentColor" viewBox="0 0 50 50" xmlns="http://www.w3.org/2000/svg">
<path d="M12.6664 16.707C13.6419 10.7747 18.7922 6.25 25.0001 6.25C31.208 6.25 36.3582 10.7748 37.3338 16.707C42.1011 17.1484 45.8334 21.1592 45.8334 26.0417C45.8334 26.3883 45.8147 26.7306 45.778 27.0677C43.3699 23.3177 39.1626 20.8333 34.3751 20.8333C26.8961 20.8333 20.8334 26.896 20.8334 34.375C20.8334 34.7254 20.8467 35.0729 20.8728 35.4167H13.5417C8.36408 35.4167 4.16675 31.2194 4.16675 26.0417C4.16675 21.1592 7.89914 17.1484 12.6664 16.707ZM45.8334 34.375C45.8334 40.7033 40.7034 45.8333 34.3751 45.8333C28.0467 45.8333 22.9167 40.7033 22.9167 34.375C22.9167 28.0467 28.0467 22.9167 34.3751 22.9167C40.7034 22.9167 45.8334 28.0467 45.8334 34.375ZM33.3334 40.625C33.3334 41.2002 33.7999 41.6667 34.3751 41.6667C34.9503 41.6667 35.4167 41.2002 35.4167 40.625V30.6398L38.8468 34.07C39.2536 34.4767 39.9132 34.4767 40.3201 34.07C40.7267 33.6631 40.7267 33.0035 40.3201 32.5967L35.1117 27.3883C34.7049 26.9817 34.0453 26.9817 33.6384 27.3883L28.4301 32.5967C28.0234 33.0035 28.0234 33.6631 28.4301 34.07C28.837 34.4767 29.4965 34.4767 29.9034 34.07L33.3334 30.6398V40.625Z"/>
</svg>
